<?xml version="1.0" encoding="utf-8" standalone="no"?>
<!DOCTYPE svg PUBLIC "-//W3C//DTD SVG 1.1//EN"
  "http://www.w3.org/Graphics/SVG/1.1/DTD/svg11.dtd">
<svg height="423.59625pt" version="1.1" viewBox="0 0 856.453125 423.59625" width="856.453125pt" xmlns="http://www.w3.org/2000/svg" xmlns:xlink="http://www.w3.org/1999/xlink">
 <metadata>
  <rdf:RDF xmlns:cc="http://creativecommons.org/ns#" xmlns:dc="http://purl.org/dc/elements/1.1/" xmlns:rdf="http://www.w3.org/1999/02/22-rdf-syntax-ns#">
   <cc:Work>
    <dc:type rdf:resource="http://purl.org/dc/dcmitype/StillImage"/>
    <dc:date>2021-04-27T13:04:54.698422</dc:date>
    <dc:format>image/svg+xml</dc:format>
    <dc:creator>
     <cc:Agent>
      <dc:title>Matplotlib v3.4.0, https://matplotlib.org/</dc:title>
     </cc:Agent>
    </dc:creator>
   </cc:Work>
  </rdf:RDF>
 </metadata>
 <defs>
  <style type="text/css">*{stroke-linecap:butt;stroke-linejoin:round;}</style>
 </defs>
 <g id="figure_1">
  <g id="patch_1">
   <path d="M 0 423.59625 
L 856.453125 423.59625 
L 856.453125 0 
L 0 0 
z
" style="fill:none;"/>
  </g>
  <g id="axes_1">
   <g id="patch_2">
    <path d="M 40.603125 399.718125 
L 849.253125 399.718125 
L 849.253125 22.318125 
L 40.603125 22.318125 
z
" style="fill:#ffffff;"/>
   </g>
   <g id="patch_3">
    <path clip-path="url(#pab2df774f7)" d="M 77.359943 399.718125 
L 129.869683 399.718125 
L 129.869683 105.70258 
L 77.359943 105.70258 
z
" style="fill:#2cbdfe;"/>
   </g>
   <g id="patch_4">
    <path clip-path="url(#pab2df774f7)" d="M 287.398904 399.718125 
L 339.908644 399.718125 
L 339.908644 40.289554 
L 287.398904 40.289554 
z
" style="fill:#2cbdfe;"/>
   </g>
   <g id="patch_5">
    <path clip-path="url(#pab2df774f7)" d="M 497.437865 399.718125 
L 549.947606 399.718125 
L 549.947606 203.707762 
L 497.437865 203.707762 
z
" style="fill:#2cbdfe;"/>
   </g>
   <g id="patch_6">
    <path clip-path="url(#pab2df774f7)" d="M 707.476826 399.718125 
L 759.986567 399.718125 
L 759.986567 105.70258 
L 707.476826 105.70258 
z
" style="fill:#2cbdfe;"/>
   </g>
   <g id="patch_7">
    <path clip-path="url(#pab2df774f7)" d="M 129.869683 399.718125 
L 182.379424 399.718125 
L 182.379424 85.575495 
L 129.869683 85.575495 
z
" style="fill:#f3a0f2;"/>
   </g>
   <g id="patch_8">
    <path clip-path="url(#pab2df774f7)" d="M 339.908644 399.718125 
L 392.418385 399.718125 
L 392.418385 90.492908 
L 339.908644 90.492908 
z
" style="fill:#f3a0f2;"/>
   </g>
   <g id="patch_9">
    <path clip-path="url(#pab2df774f7)" d="M 549.947606 399.718125 
L 602.457346 399.718125 
L 602.457346 144.470091 
L 549.947606 144.470091 
z
" style="fill:#f3a0f2;"/>
   </g>
   <g id="patch_10">
    <path clip-path="url(#pab2df774f7)" d="M 759.986567 399.718125 
L 812.496307 399.718125 
L 812.496307 134.635265 
L 759.986567 134.635265 
z
" style="fill:#f3a0f2;"/>
   </g>
   <g id="matplotlib.axis_1">
    <g id="xtick_1">
     <g id="line2d_1">
      <defs>
       <path d="M 0 0 
L 0 3.5 
" id="md83bcc61a1" style="stroke:#000000;stroke-width:0.8;"/>
      </defs>
      <g>
       <use style="stroke:#000000;stroke-width:0.8;" x="129.869683" xlink:href="#md83bcc61a1" y="399.718125"/>
      </g>
     </g>
     <g id="text_1">
      <!-- Minimal -->
      <g transform="translate(110.285308 414.316562)scale(0.1 -0.1)">
       <defs>
        <path d="M 628 4666 
L 1569 4666 
L 2759 1491 
L 3956 4666 
L 4897 4666 
L 4897 0 
L 4281 0 
L 4281 4097 
L 3078 897 
L 2444 897 
L 1241 4097 
L 1241 0 
L 628 0 
L 628 4666 
z
" id="DejaVuSans-4d" transform="scale(0.015625)"/>
        <path d="M 603 3500 
L 1178 3500 
L 1178 0 
L 603 0 
L 603 3500 
z
M 603 4863 
L 1178 4863 
L 1178 4134 
L 603 4134 
L 603 4863 
z
" id="DejaVuSans-69" transform="scale(0.015625)"/>
        <path d="M 3513 2113 
L 3513 0 
L 2938 0 
L 2938 2094 
Q 2938 2591 2744 2837 
Q 2550 3084 2163 3084 
Q 1697 3084 1428 2787 
Q 1159 2491 1159 1978 
L 1159 0 
L 581 0 
L 581 3500 
L 1159 3500 
L 1159 2956 
Q 1366 3272 1645 3428 
Q 1925 3584 2291 3584 
Q 2894 3584 3203 3211 
Q 3513 2838 3513 2113 
z
" id="DejaVuSans-6e" transform="scale(0.015625)"/>
        <path d="M 3328 2828 
Q 3544 3216 3844 3400 
Q 4144 3584 4550 3584 
Q 5097 3584 5394 3201 
Q 5691 2819 5691 2113 
L 5691 0 
L 5113 0 
L 5113 2094 
Q 5113 2597 4934 2840 
Q 4756 3084 4391 3084 
Q 3944 3084 3684 2787 
Q 3425 2491 3425 1978 
L 3425 0 
L 2847 0 
L 2847 2094 
Q 2847 2600 2669 2842 
Q 2491 3084 2119 3084 
Q 1678 3084 1418 2786 
Q 1159 2488 1159 1978 
L 1159 0 
L 581 0 
L 581 3500 
L 1159 3500 
L 1159 2956 
Q 1356 3278 1631 3431 
Q 1906 3584 2284 3584 
Q 2666 3584 2933 3390 
Q 3200 3197 3328 2828 
z
" id="DejaVuSans-6d" transform="scale(0.015625)"/>
        <path d="M 2194 1759 
Q 1497 1759 1228 1600 
Q 959 1441 959 1056 
Q 959 750 1161 570 
Q 1363 391 1709 391 
Q 2188 391 2477 730 
Q 2766 1069 2766 1631 
L 2766 1759 
L 2194 1759 
z
M 3341 1997 
L 3341 0 
L 2766 0 
L 2766 531 
Q 2569 213 2275 61 
Q 1981 -91 1556 -91 
Q 1019 -91 701 211 
Q 384 513 384 1019 
Q 384 1609 779 1909 
Q 1175 2209 1959 2209 
L 2766 2209 
L 2766 2266 
Q 2766 2663 2505 2880 
Q 2244 3097 1772 3097 
Q 1472 3097 1187 3025 
Q 903 2953 641 2809 
L 641 3341 
Q 956 3463 1253 3523 
Q 1550 3584 1831 3584 
Q 2591 3584 2966 3190 
Q 3341 2797 3341 1997 
z
" id="DejaVuSans-61" transform="scale(0.015625)"/>
        <path d="M 603 4863 
L 1178 4863 
L 1178 0 
L 603 0 
L 603 4863 
z
" id="DejaVuSans-6c" transform="scale(0.015625)"/>
       </defs>
       <use xlink:href="#DejaVuSans-4d"/>
       <use x="86.279297" xlink:href="#DejaVuSans-69"/>
       <use x="114.0625" xlink:href="#DejaVuSans-6e"/>
       <use x="177.441406" xlink:href="#DejaVuSans-69"/>
       <use x="205.224609" xlink:href="#DejaVuSans-6d"/>
       <use x="302.636719" xlink:href="#DejaVuSans-61"/>
       <use x="363.916016" xlink:href="#DejaVuSans-6c"/>
      </g>
     </g>
    </g>
    <g id="xtick_2">
     <g id="line2d_2">
      <g>
       <use style="stroke:#000000;stroke-width:0.8;" x="339.908644" xlink:href="#md83bcc61a1" y="399.718125"/>
      </g>
     </g>
     <g id="text_2">
      <!-- Mild -->
      <g transform="translate(329.642238 414.316562)scale(0.1 -0.1)">
       <defs>
        <path d="M 2906 2969 
L 2906 4863 
L 3481 4863 
L 3481 0 
L 2906 0 
L 2906 525 
Q 2725 213 2448 61 
Q 2172 -91 1784 -91 
Q 1150 -91 751 415 
Q 353 922 353 1747 
Q 353 2572 751 3078 
Q 1150 3584 1784 3584 
Q 2172 3584 2448 3432 
Q 2725 3281 2906 2969 
z
M 947 1747 
Q 947 1113 1208 752 
Q 1469 391 1925 391 
Q 2381 391 2643 752 
Q 2906 1113 2906 1747 
Q 2906 2381 2643 2742 
Q 2381 3103 1925 3103 
Q 1469 3103 1208 2742 
Q 947 2381 947 1747 
z
" id="DejaVuSans-64" transform="scale(0.015625)"/>
       </defs>
       <use xlink:href="#DejaVuSans-4d"/>
       <use x="86.279297" xlink:href="#DejaVuSans-69"/>
       <use x="114.0625" xlink:href="#DejaVuSans-6c"/>
       <use x="141.845703" xlink:href="#DejaVuSans-64"/>
      </g>
     </g>
    </g>
    <g id="xtick_3">
     <g id="line2d_3">
      <g>
       <use style="stroke:#000000;stroke-width:0.8;" x="549.947606" xlink:href="#md83bcc61a1" y="399.718125"/>
      </g>
     </g>
     <g id="text_3">
      <!-- Moderate -->
      <g transform="translate(526.167137 414.316562)scale(0.1 -0.1)">
       <defs>
        <path d="M 1959 3097 
Q 1497 3097 1228 2736 
Q 959 2375 959 1747 
Q 959 1119 1226 758 
Q 1494 397 1959 397 
Q 2419 397 2687 759 
Q 2956 1122 2956 1747 
Q 2956 2369 2687 2733 
Q 2419 3097 1959 3097 
z
M 1959 3584 
Q 2709 3584 3137 3096 
Q 3566 2609 3566 1747 
Q 3566 888 3137 398 
Q 2709 -91 1959 -91 
Q 1206 -91 779 398 
Q 353 888 353 1747 
Q 353 2609 779 3096 
Q 1206 3584 1959 3584 
z
" id="DejaVuSans-6f" transform="scale(0.015625)"/>
        <path d="M 3597 1894 
L 3597 1613 
L 953 1613 
Q 991 1019 1311 708 
Q 1631 397 2203 397 
Q 2534 397 2845 478 
Q 3156 559 3463 722 
L 3463 178 
Q 3153 47 2828 -22 
Q 2503 -91 2169 -91 
Q 1331 -91 842 396 
Q 353 884 353 1716 
Q 353 2575 817 3079 
Q 1281 3584 2069 3584 
Q 2775 3584 3186 3129 
Q 3597 2675 3597 1894 
z
M 3022 2063 
Q 3016 2534 2758 2815 
Q 2500 3097 2075 3097 
Q 1594 3097 1305 2825 
Q 1016 2553 972 2059 
L 3022 2063 
z
" id="DejaVuSans-65" transform="scale(0.015625)"/>
        <path d="M 2631 2963 
Q 2534 3019 2420 3045 
Q 2306 3072 2169 3072 
Q 1681 3072 1420 2755 
Q 1159 2438 1159 1844 
L 1159 0 
L 581 0 
L 581 3500 
L 1159 3500 
L 1159 2956 
Q 1341 3275 1631 3429 
Q 1922 3584 2338 3584 
Q 2397 3584 2469 3576 
Q 2541 3569 2628 3553 
L 2631 2963 
z
" id="DejaVuSans-72" transform="scale(0.015625)"/>
        <path d="M 1172 4494 
L 1172 3500 
L 2356 3500 
L 2356 3053 
L 1172 3053 
L 1172 1153 
Q 1172 725 1289 603 
Q 1406 481 1766 481 
L 2356 481 
L 2356 0 
L 1766 0 
Q 1100 0 847 248 
Q 594 497 594 1153 
L 594 3053 
L 172 3053 
L 172 3500 
L 594 3500 
L 594 4494 
L 1172 4494 
z
" id="DejaVuSans-74" transform="scale(0.015625)"/>
       </defs>
       <use xlink:href="#DejaVuSans-4d"/>
       <use x="86.279297" xlink:href="#DejaVuSans-6f"/>
       <use x="147.460938" xlink:href="#DejaVuSans-64"/>
       <use x="210.9375" xlink:href="#DejaVuSans-65"/>
       <use x="272.460938" xlink:href="#DejaVuSans-72"/>
       <use x="313.574219" xlink:href="#DejaVuSans-61"/>
       <use x="374.853516" xlink:href="#DejaVuSans-74"/>
       <use x="414.0625" xlink:href="#DejaVuSans-65"/>
      </g>
     </g>
    </g>
    <g id="xtick_4">
     <g id="line2d_4">
      <g>
       <use style="stroke:#000000;stroke-width:0.8;" x="759.986567" xlink:href="#md83bcc61a1" y="399.718125"/>
      </g>
     </g>
     <g id="text_4">
      <!-- Severe -->
      <g transform="translate(742.680317 414.316562)scale(0.1 -0.1)">
       <defs>
        <path d="M 3425 4513 
L 3425 3897 
Q 3066 4069 2747 4153 
Q 2428 4238 2131 4238 
Q 1616 4238 1336 4038 
Q 1056 3838 1056 3469 
Q 1056 3159 1242 3001 
Q 1428 2844 1947 2747 
L 2328 2669 
Q 3034 2534 3370 2195 
Q 3706 1856 3706 1288 
Q 3706 609 3251 259 
Q 2797 -91 1919 -91 
Q 1588 -91 1214 -16 
Q 841 59 441 206 
L 441 856 
Q 825 641 1194 531 
Q 1563 422 1919 422 
Q 2459 422 2753 634 
Q 3047 847 3047 1241 
Q 3047 1584 2836 1778 
Q 2625 1972 2144 2069 
L 1759 2144 
Q 1053 2284 737 2584 
Q 422 2884 422 3419 
Q 422 4038 858 4394 
Q 1294 4750 2059 4750 
Q 2388 4750 2728 4690 
Q 3069 4631 3425 4513 
z
" id="DejaVuSans-53" transform="scale(0.015625)"/>
        <path d="M 191 3500 
L 800 3500 
L 1894 563 
L 2988 3500 
L 3597 3500 
L 2284 0 
L 1503 0 
L 191 3500 
z
" id="DejaVuSans-76" transform="scale(0.015625)"/>
       </defs>
       <use xlink:href="#DejaVuSans-53"/>
       <use x="63.476562" xlink:href="#DejaVuSans-65"/>
       <use x="125" xlink:href="#DejaVuSans-76"/>
       <use x="184.179688" xlink:href="#DejaVuSans-65"/>
       <use x="245.703125" xlink:href="#DejaVuSans-72"/>
       <use x="284.566406" xlink:href="#DejaVuSans-65"/>
      </g>
     </g>
    </g>
   </g>
   <g id="matplotlib.axis_2">
    <g id="ytick_1">
     <g id="line2d_5">
      <defs>
       <path d="M 0 0 
L -3.5 0 
" id="mb6e4cd69ca" style="stroke:#000000;stroke-width:0.8;"/>
      </defs>
      <g>
       <use style="stroke:#000000;stroke-width:0.8;" x="40.603125" xlink:href="#mb6e4cd69ca" y="399.718125"/>
      </g>
     </g>
     <g id="text_5">
      <!-- 0 -->
      <g transform="translate(27.240625 403.517344)scale(0.1 -0.1)">
       <defs>
        <path d="M 2034 4250 
Q 1547 4250 1301 3770 
Q 1056 3291 1056 2328 
Q 1056 1369 1301 889 
Q 1547 409 2034 409 
Q 2525 409 2770 889 
Q 3016 1369 3016 2328 
Q 3016 3291 2770 3770 
Q 2525 4250 2034 4250 
z
M 2034 4750 
Q 2819 4750 3233 4129 
Q 3647 3509 3647 2328 
Q 3647 1150 3233 529 
Q 2819 -91 2034 -91 
Q 1250 -91 836 529 
Q 422 1150 422 2328 
Q 422 3509 836 4129 
Q 1250 4750 2034 4750 
z
" id="DejaVuSans-30" transform="scale(0.015625)"/>
       </defs>
       <use xlink:href="#DejaVuSans-30"/>
      </g>
     </g>
    </g>
    <g id="ytick_2">
     <g id="line2d_6">
      <g>
       <use style="stroke:#000000;stroke-width:0.8;" x="40.603125" xlink:href="#mb6e4cd69ca" y="342.538906"/>
      </g>
     </g>
     <g id="text_6">
      <!-- 5 -->
      <g transform="translate(27.240625 346.338125)scale(0.1 -0.1)">
       <defs>
        <path d="M 691 4666 
L 3169 4666 
L 3169 4134 
L 1269 4134 
L 1269 2991 
Q 1406 3038 1543 3061 
Q 1681 3084 1819 3084 
Q 2600 3084 3056 2656 
Q 3513 2228 3513 1497 
Q 3513 744 3044 326 
Q 2575 -91 1722 -91 
Q 1428 -91 1123 -41 
Q 819 9 494 109 
L 494 744 
Q 775 591 1075 516 
Q 1375 441 1709 441 
Q 2250 441 2565 725 
Q 2881 1009 2881 1497 
Q 2881 1984 2565 2268 
Q 2250 2553 1709 2553 
Q 1456 2553 1204 2497 
Q 953 2441 691 2322 
L 691 4666 
z
" id="DejaVuSans-35" transform="scale(0.015625)"/>
       </defs>
       <use xlink:href="#DejaVuSans-35"/>
      </g>
     </g>
    </g>
    <g id="ytick_3">
     <g id="line2d_7">
      <g>
       <use style="stroke:#000000;stroke-width:0.8;" x="40.603125" xlink:href="#mb6e4cd69ca" y="285.359687"/>
      </g>
     </g>
     <g id="text_7">
      <!-- 10 -->
      <g transform="translate(20.878125 289.158905)scale(0.1 -0.1)">
       <defs>
        <path d="M 794 531 
L 1825 531 
L 1825 4091 
L 703 3866 
L 703 4441 
L 1819 4666 
L 2450 4666 
L 2450 531 
L 3481 531 
L 3481 0 
L 794 0 
L 794 531 
z
" id="DejaVuSans-31" transform="scale(0.015625)"/>
       </defs>
       <use xlink:href="#DejaVuSans-31"/>
       <use x="63.623047" xlink:href="#DejaVuSans-30"/>
      </g>
     </g>
    </g>
    <g id="ytick_4">
     <g id="line2d_8">
      <g>
       <use style="stroke:#000000;stroke-width:0.8;" x="40.603125" xlink:href="#mb6e4cd69ca" y="228.180468"/>
      </g>
     </g>
     <g id="text_8">
      <!-- 15 -->
      <g transform="translate(20.878125 231.979686)scale(0.1 -0.1)">
       <use xlink:href="#DejaVuSans-31"/>
       <use x="63.623047" xlink:href="#DejaVuSans-35"/>
      </g>
     </g>
    </g>
    <g id="ytick_5">
     <g id="line2d_9">
      <g>
       <use style="stroke:#000000;stroke-width:0.8;" x="40.603125" xlink:href="#mb6e4cd69ca" y="171.001248"/>
      </g>
     </g>
     <g id="text_9">
      <!-- 20 -->
      <g transform="translate(20.878125 174.800467)scale(0.1 -0.1)">
       <defs>
        <path d="M 1228 531 
L 3431 531 
L 3431 0 
L 469 0 
L 469 531 
Q 828 903 1448 1529 
Q 2069 2156 2228 2338 
Q 2531 2678 2651 2914 
Q 2772 3150 2772 3378 
Q 2772 3750 2511 3984 
Q 2250 4219 1831 4219 
Q 1534 4219 1204 4116 
Q 875 4013 500 3803 
L 500 4441 
Q 881 4594 1212 4672 
Q 1544 4750 1819 4750 
Q 2544 4750 2975 4387 
Q 3406 4025 3406 3419 
Q 3406 3131 3298 2873 
Q 3191 2616 2906 2266 
Q 2828 2175 2409 1742 
Q 1991 1309 1228 531 
z
" id="DejaVuSans-32" transform="scale(0.015625)"/>
       </defs>
       <use xlink:href="#DejaVuSans-32"/>
       <use x="63.623047" xlink:href="#DejaVuSans-30"/>
      </g>
     </g>
    </g>
    <g id="ytick_6">
     <g id="line2d_10">
      <g>
       <use style="stroke:#000000;stroke-width:0.8;" x="40.603125" xlink:href="#mb6e4cd69ca" y="113.822029"/>
      </g>
     </g>
     <g id="text_10">
      <!-- 25 -->
      <g transform="translate(20.878125 117.621248)scale(0.1 -0.1)">
       <use xlink:href="#DejaVuSans-32"/>
       <use x="63.623047" xlink:href="#DejaVuSans-35"/>
      </g>
     </g>
    </g>
    <g id="ytick_7">
     <g id="line2d_11">
      <g>
       <use style="stroke:#000000;stroke-width:0.8;" x="40.603125" xlink:href="#mb6e4cd69ca" y="56.64281"/>
      </g>
     </g>
     <g id="text_11">
      <!-- 30 -->
      <g transform="translate(20.878125 60.442029)scale(0.1 -0.1)">
       <defs>
        <path d="M 2597 2516 
Q 3050 2419 3304 2112 
Q 3559 1806 3559 1356 
Q 3559 666 3084 287 
Q 2609 -91 1734 -91 
Q 1441 -91 1130 -33 
Q 819 25 488 141 
L 488 750 
Q 750 597 1062 519 
Q 1375 441 1716 441 
Q 2309 441 2620 675 
Q 2931 909 2931 1356 
Q 2931 1769 2642 2001 
Q 2353 2234 1838 2234 
L 1294 2234 
L 1294 2753 
L 1863 2753 
Q 2328 2753 2575 2939 
Q 2822 3125 2822 3475 
Q 2822 3834 2567 4026 
Q 2313 4219 1838 4219 
Q 1578 4219 1281 4162 
Q 984 4106 628 3988 
L 628 4550 
Q 988 4650 1302 4700 
Q 1616 4750 1894 4750 
Q 2613 4750 3031 4423 
Q 3450 4097 3450 3541 
Q 3450 3153 3228 2886 
Q 3006 2619 2597 2516 
z
" id="DejaVuSans-33" transform="scale(0.015625)"/>
       </defs>
       <use xlink:href="#DejaVuSans-33"/>
       <use x="63.623047" xlink:href="#DejaVuSans-30"/>
      </g>
     </g>
    </g>
    <g id="text_12">
     <!-- Percentage of Students -->
     <g transform="translate(14.798438 269.425937)rotate(-90)scale(0.1 -0.1)">
      <defs>
       <path d="M 1259 4147 
L 1259 2394 
L 2053 2394 
Q 2494 2394 2734 2622 
Q 2975 2850 2975 3272 
Q 2975 3691 2734 3919 
Q 2494 4147 2053 4147 
L 1259 4147 
z
M 628 4666 
L 2053 4666 
Q 2838 4666 3239 4311 
Q 3641 3956 3641 3272 
Q 3641 2581 3239 2228 
Q 2838 1875 2053 1875 
L 1259 1875 
L 1259 0 
L 628 0 
L 628 4666 
z
" id="DejaVuSans-50" transform="scale(0.015625)"/>
       <path d="M 3122 3366 
L 3122 2828 
Q 2878 2963 2633 3030 
Q 2388 3097 2138 3097 
Q 1578 3097 1268 2742 
Q 959 2388 959 1747 
Q 959 1106 1268 751 
Q 1578 397 2138 397 
Q 2388 397 2633 464 
Q 2878 531 3122 666 
L 3122 134 
Q 2881 22 2623 -34 
Q 2366 -91 2075 -91 
Q 1284 -91 818 406 
Q 353 903 353 1747 
Q 353 2603 823 3093 
Q 1294 3584 2113 3584 
Q 2378 3584 2631 3529 
Q 2884 3475 3122 3366 
z
" id="DejaVuSans-63" transform="scale(0.015625)"/>
       <path d="M 2906 1791 
Q 2906 2416 2648 2759 
Q 2391 3103 1925 3103 
Q 1463 3103 1205 2759 
Q 947 2416 947 1791 
Q 947 1169 1205 825 
Q 1463 481 1925 481 
Q 2391 481 2648 825 
Q 2906 1169 2906 1791 
z
M 3481 434 
Q 3481 -459 3084 -895 
Q 2688 -1331 1869 -1331 
Q 1566 -1331 1297 -1286 
Q 1028 -1241 775 -1147 
L 775 -588 
Q 1028 -725 1275 -790 
Q 1522 -856 1778 -856 
Q 2344 -856 2625 -561 
Q 2906 -266 2906 331 
L 2906 616 
Q 2728 306 2450 153 
Q 2172 0 1784 0 
Q 1141 0 747 490 
Q 353 981 353 1791 
Q 353 2603 747 3093 
Q 1141 3584 1784 3584 
Q 2172 3584 2450 3431 
Q 2728 3278 2906 2969 
L 2906 3500 
L 3481 3500 
L 3481 434 
z
" id="DejaVuSans-67" transform="scale(0.015625)"/>
       <path id="DejaVuSans-20" transform="scale(0.015625)"/>
       <path d="M 2375 4863 
L 2375 4384 
L 1825 4384 
Q 1516 4384 1395 4259 
Q 1275 4134 1275 3809 
L 1275 3500 
L 2222 3500 
L 2222 3053 
L 1275 3053 
L 1275 0 
L 697 0 
L 697 3053 
L 147 3053 
L 147 3500 
L 697 3500 
L 697 3744 
Q 697 4328 969 4595 
Q 1241 4863 1831 4863 
L 2375 4863 
z
" id="DejaVuSans-66" transform="scale(0.015625)"/>
       <path d="M 544 1381 
L 544 3500 
L 1119 3500 
L 1119 1403 
Q 1119 906 1312 657 
Q 1506 409 1894 409 
Q 2359 409 2629 706 
Q 2900 1003 2900 1516 
L 2900 3500 
L 3475 3500 
L 3475 0 
L 2900 0 
L 2900 538 
Q 2691 219 2414 64 
Q 2138 -91 1772 -91 
Q 1169 -91 856 284 
Q 544 659 544 1381 
z
M 1991 3584 
L 1991 3584 
z
" id="DejaVuSans-75" transform="scale(0.015625)"/>
       <path d="M 2834 3397 
L 2834 2853 
Q 2591 2978 2328 3040 
Q 2066 3103 1784 3103 
Q 1356 3103 1142 2972 
Q 928 2841 928 2578 
Q 928 2378 1081 2264 
Q 1234 2150 1697 2047 
L 1894 2003 
Q 2506 1872 2764 1633 
Q 3022 1394 3022 966 
Q 3022 478 2636 193 
Q 2250 -91 1575 -91 
Q 1294 -91 989 -36 
Q 684 19 347 128 
L 347 722 
Q 666 556 975 473 
Q 1284 391 1588 391 
Q 1994 391 2212 530 
Q 2431 669 2431 922 
Q 2431 1156 2273 1281 
Q 2116 1406 1581 1522 
L 1381 1569 
Q 847 1681 609 1914 
Q 372 2147 372 2553 
Q 372 3047 722 3315 
Q 1072 3584 1716 3584 
Q 2034 3584 2315 3537 
Q 2597 3491 2834 3397 
z
" id="DejaVuSans-73" transform="scale(0.015625)"/>
      </defs>
      <use xlink:href="#DejaVuSans-50"/>
      <use x="56.677734" xlink:href="#DejaVuSans-65"/>
      <use x="118.201172" xlink:href="#DejaVuSans-72"/>
      <use x="157.064453" xlink:href="#DejaVuSans-63"/>
      <use x="212.044922" xlink:href="#DejaVuSans-65"/>
      <use x="273.568359" xlink:href="#DejaVuSans-6e"/>
      <use x="336.947266" xlink:href="#DejaVuSans-74"/>
      <use x="376.15625" xlink:href="#DejaVuSans-61"/>
      <use x="437.435547" xlink:href="#DejaVuSans-67"/>
      <use x="500.912109" xlink:href="#DejaVuSans-65"/>
      <use x="562.435547" xlink:href="#DejaVuSans-20"/>
      <use x="594.222656" xlink:href="#DejaVuSans-6f"/>
      <use x="655.404297" xlink:href="#DejaVuSans-66"/>
      <use x="690.609375" xlink:href="#DejaVuSans-20"/>
      <use x="722.396484" xlink:href="#DejaVuSans-53"/>
      <use x="785.873047" xlink:href="#DejaVuSans-74"/>
      <use x="825.082031" xlink:href="#DejaVuSans-75"/>
      <use x="888.460938" xlink:href="#DejaVuSans-64"/>
      <use x="951.9375" xlink:href="#DejaVuSans-65"/>
      <use x="1013.460938" xlink:href="#DejaVuSans-6e"/>
      <use x="1076.839844" xlink:href="#DejaVuSans-74"/>
      <use x="1116.048828" xlink:href="#DejaVuSans-73"/>
     </g>
    </g>
   </g>
   <g id="patch_11">
    <path d="M 40.603125 399.718125 
L 40.603125 22.318125 
" style="fill:none;stroke:#000000;stroke-linecap:square;stroke-linejoin:miter;stroke-width:0.8;"/>
   </g>
   <g id="patch_12">
    <path d="M 849.253125 399.718125 
L 849.253125 22.318125 
" style="fill:none;stroke:#000000;stroke-linecap:square;stroke-linejoin:miter;stroke-width:0.8;"/>
   </g>
   <g id="patch_13">
    <path d="M 40.603125 399.718125 
L 849.253125 399.718125 
" style="fill:none;stroke:#000000;stroke-linecap:square;stroke-linejoin:miter;stroke-width:0.8;"/>
   </g>
   <g id="patch_14">
    <path d="M 40.603125 22.318125 
L 849.253125 22.318125 
" style="fill:none;stroke:#000000;stroke-linecap:square;stroke-linejoin:miter;stroke-width:0.8;"/>
   </g>
   <g id="text_13">
    <!-- 25.71 -->
    <g transform="translate(89.300751 100.622893)scale(0.1 -0.1)">
     <defs>
      <path d="M 684 794 
L 1344 794 
L 1344 0 
L 684 0 
L 684 794 
z
" id="DejaVuSans-2e" transform="scale(0.015625)"/>
      <path d="M 525 4666 
L 3525 4666 
L 3525 4397 
L 1831 0 
L 1172 0 
L 2766 4134 
L 525 4134 
L 525 4666 
z
" id="DejaVuSans-37" transform="scale(0.015625)"/>
     </defs>
     <use xlink:href="#DejaVuSans-32"/>
     <use x="63.623047" xlink:href="#DejaVuSans-35"/>
     <use x="127.246094" xlink:href="#DejaVuSans-2e"/>
     <use x="159.033203" xlink:href="#DejaVuSans-37"/>
     <use x="222.65625" xlink:href="#DejaVuSans-31"/>
    </g>
   </g>
   <g id="text_14">
    <!-- 31.43 -->
    <g transform="translate(299.339712 35.209866)scale(0.1 -0.1)">
     <defs>
      <path d="M 2419 4116 
L 825 1625 
L 2419 1625 
L 2419 4116 
z
M 2253 4666 
L 3047 4666 
L 3047 1625 
L 3713 1625 
L 3713 1100 
L 3047 1100 
L 3047 0 
L 2419 0 
L 2419 1100 
L 313 1100 
L 313 1709 
L 2253 4666 
z
" id="DejaVuSans-34" transform="scale(0.015625)"/>
     </defs>
     <use xlink:href="#DejaVuSans-33"/>
     <use x="63.623047" xlink:href="#DejaVuSans-31"/>
     <use x="127.246094" xlink:href="#DejaVuSans-2e"/>
     <use x="159.033203" xlink:href="#DejaVuSans-34"/>
     <use x="222.65625" xlink:href="#DejaVuSans-33"/>
    </g>
   </g>
   <g id="text_15">
    <!-- 17.14 -->
    <g transform="translate(509.378673 198.628074)scale(0.1 -0.1)">
     <use xlink:href="#DejaVuSans-31"/>
     <use x="63.623047" xlink:href="#DejaVuSans-37"/>
     <use x="127.246094" xlink:href="#DejaVuSans-2e"/>
     <use x="159.033203" xlink:href="#DejaVuSans-31"/>
     <use x="222.65625" xlink:href="#DejaVuSans-34"/>
    </g>
   </g>
   <g id="text_16">
    <!-- 25.71 -->
    <g transform="translate(719.417634 100.622893)scale(0.1 -0.1)">
     <use xlink:href="#DejaVuSans-32"/>
     <use x="63.623047" xlink:href="#DejaVuSans-35"/>
     <use x="127.246094" xlink:href="#DejaVuSans-2e"/>
     <use x="159.033203" xlink:href="#DejaVuSans-37"/>
     <use x="222.65625" xlink:href="#DejaVuSans-31"/>
    </g>
   </g>
   <g id="text_17">
    <!-- 27.47 -->
    <g transform="translate(141.810491 80.495808)scale(0.1 -0.1)">
     <use xlink:href="#DejaVuSans-32"/>
     <use x="63.623047" xlink:href="#DejaVuSans-37"/>
     <use x="127.246094" xlink:href="#DejaVuSans-2e"/>
     <use x="159.033203" xlink:href="#DejaVuSans-34"/>
     <use x="222.65625" xlink:href="#DejaVuSans-37"/>
    </g>
   </g>
   <g id="text_18">
    <!-- 27.04 -->
    <g transform="translate(351.849452 85.41322)scale(0.1 -0.1)">
     <use xlink:href="#DejaVuSans-32"/>
     <use x="63.623047" xlink:href="#DejaVuSans-37"/>
     <use x="127.246094" xlink:href="#DejaVuSans-2e"/>
     <use x="159.033203" xlink:href="#DejaVuSans-30"/>
     <use x="222.65625" xlink:href="#DejaVuSans-34"/>
    </g>
   </g>
   <g id="text_19">
    <!-- 22.32 -->
    <g transform="translate(561.888413 139.390403)scale(0.1 -0.1)">
     <use xlink:href="#DejaVuSans-32"/>
     <use x="63.623047" xlink:href="#DejaVuSans-32"/>
     <use x="127.246094" xlink:href="#DejaVuSans-2e"/>
     <use x="159.033203" xlink:href="#DejaVuSans-33"/>
     <use x="222.65625" xlink:href="#DejaVuSans-32"/>
    </g>
   </g>
   <g id="text_20">
    <!-- 23.18 -->
    <g transform="translate(771.927374 129.555578)scale(0.1 -0.1)">
     <defs>
      <path d="M 2034 2216 
Q 1584 2216 1326 1975 
Q 1069 1734 1069 1313 
Q 1069 891 1326 650 
Q 1584 409 2034 409 
Q 2484 409 2743 651 
Q 3003 894 3003 1313 
Q 3003 1734 2745 1975 
Q 2488 2216 2034 2216 
z
M 1403 2484 
Q 997 2584 770 2862 
Q 544 3141 544 3541 
Q 544 4100 942 4425 
Q 1341 4750 2034 4750 
Q 2731 4750 3128 4425 
Q 3525 4100 3525 3541 
Q 3525 3141 3298 2862 
Q 3072 2584 2669 2484 
Q 3125 2378 3379 2068 
Q 3634 1759 3634 1313 
Q 3634 634 3220 271 
Q 2806 -91 2034 -91 
Q 1263 -91 848 271 
Q 434 634 434 1313 
Q 434 1759 690 2068 
Q 947 2378 1403 2484 
z
M 1172 3481 
Q 1172 3119 1398 2916 
Q 1625 2713 2034 2713 
Q 2441 2713 2670 2916 
Q 2900 3119 2900 3481 
Q 2900 3844 2670 4047 
Q 2441 4250 2034 4250 
Q 1625 4250 1398 4047 
Q 1172 3844 1172 3481 
z
" id="DejaVuSans-38" transform="scale(0.015625)"/>
     </defs>
     <use xlink:href="#DejaVuSans-32"/>
     <use x="63.623047" xlink:href="#DejaVuSans-33"/>
     <use x="127.246094" xlink:href="#DejaVuSans-2e"/>
     <use x="159.033203" xlink:href="#DejaVuSans-31"/>
     <use x="222.65625" xlink:href="#DejaVuSans-38"/>
    </g>
   </g>
   <g id="text_21">
    <!-- Percentage of Students by Frequency of School Change -->
    <g transform="translate(278.2725 16.318125)scale(0.12 -0.12)">
     <defs>
      <path d="M 3116 1747 
Q 3116 2381 2855 2742 
Q 2594 3103 2138 3103 
Q 1681 3103 1420 2742 
Q 1159 2381 1159 1747 
Q 1159 1113 1420 752 
Q 1681 391 2138 391 
Q 2594 391 2855 752 
Q 3116 1113 3116 1747 
z
M 1159 2969 
Q 1341 3281 1617 3432 
Q 1894 3584 2278 3584 
Q 2916 3584 3314 3078 
Q 3713 2572 3713 1747 
Q 3713 922 3314 415 
Q 2916 -91 2278 -91 
Q 1894 -91 1617 61 
Q 1341 213 1159 525 
L 1159 0 
L 581 0 
L 581 4863 
L 1159 4863 
L 1159 2969 
z
" id="DejaVuSans-62" transform="scale(0.015625)"/>
      <path d="M 2059 -325 
Q 1816 -950 1584 -1140 
Q 1353 -1331 966 -1331 
L 506 -1331 
L 506 -850 
L 844 -850 
Q 1081 -850 1212 -737 
Q 1344 -625 1503 -206 
L 1606 56 
L 191 3500 
L 800 3500 
L 1894 763 
L 2988 3500 
L 3597 3500 
L 2059 -325 
z
" id="DejaVuSans-79" transform="scale(0.015625)"/>
      <path d="M 628 4666 
L 3309 4666 
L 3309 4134 
L 1259 4134 
L 1259 2759 
L 3109 2759 
L 3109 2228 
L 1259 2228 
L 1259 0 
L 628 0 
L 628 4666 
z
" id="DejaVuSans-46" transform="scale(0.015625)"/>
      <path d="M 947 1747 
Q 947 1113 1208 752 
Q 1469 391 1925 391 
Q 2381 391 2643 752 
Q 2906 1113 2906 1747 
Q 2906 2381 2643 2742 
Q 2381 3103 1925 3103 
Q 1469 3103 1208 2742 
Q 947 2381 947 1747 
z
M 2906 525 
Q 2725 213 2448 61 
Q 2172 -91 1784 -91 
Q 1150 -91 751 415 
Q 353 922 353 1747 
Q 353 2572 751 3078 
Q 1150 3584 1784 3584 
Q 2172 3584 2448 3432 
Q 2725 3281 2906 2969 
L 2906 3500 
L 3481 3500 
L 3481 -1331 
L 2906 -1331 
L 2906 525 
z
" id="DejaVuSans-71" transform="scale(0.015625)"/>
      <path d="M 3513 2113 
L 3513 0 
L 2938 0 
L 2938 2094 
Q 2938 2591 2744 2837 
Q 2550 3084 2163 3084 
Q 1697 3084 1428 2787 
Q 1159 2491 1159 1978 
L 1159 0 
L 581 0 
L 581 4863 
L 1159 4863 
L 1159 2956 
Q 1366 3272 1645 3428 
Q 1925 3584 2291 3584 
Q 2894 3584 3203 3211 
Q 3513 2838 3513 2113 
z
" id="DejaVuSans-68" transform="scale(0.015625)"/>
      <path d="M 4122 4306 
L 4122 3641 
Q 3803 3938 3442 4084 
Q 3081 4231 2675 4231 
Q 1875 4231 1450 3742 
Q 1025 3253 1025 2328 
Q 1025 1406 1450 917 
Q 1875 428 2675 428 
Q 3081 428 3442 575 
Q 3803 722 4122 1019 
L 4122 359 
Q 3791 134 3420 21 
Q 3050 -91 2638 -91 
Q 1578 -91 968 557 
Q 359 1206 359 2328 
Q 359 3453 968 4101 
Q 1578 4750 2638 4750 
Q 3056 4750 3426 4639 
Q 3797 4528 4122 4306 
z
" id="DejaVuSans-43" transform="scale(0.015625)"/>
     </defs>
     <use xlink:href="#DejaVuSans-50"/>
     <use x="56.677734" xlink:href="#DejaVuSans-65"/>
     <use x="118.201172" xlink:href="#DejaVuSans-72"/>
     <use x="157.064453" xlink:href="#DejaVuSans-63"/>
     <use x="212.044922" xlink:href="#DejaVuSans-65"/>
     <use x="273.568359" xlink:href="#DejaVuSans-6e"/>
     <use x="336.947266" xlink:href="#DejaVuSans-74"/>
     <use x="376.15625" xlink:href="#DejaVuSans-61"/>
     <use x="437.435547" xlink:href="#DejaVuSans-67"/>
     <use x="500.912109" xlink:href="#DejaVuSans-65"/>
     <use x="562.435547" xlink:href="#DejaVuSans-20"/>
     <use x="594.222656" xlink:href="#DejaVuSans-6f"/>
     <use x="655.404297" xlink:href="#DejaVuSans-66"/>
     <use x="690.609375" xlink:href="#DejaVuSans-20"/>
     <use x="722.396484" xlink:href="#DejaVuSans-53"/>
     <use x="785.873047" xlink:href="#DejaVuSans-74"/>
     <use x="825.082031" xlink:href="#DejaVuSans-75"/>
     <use x="888.460938" xlink:href="#DejaVuSans-64"/>
     <use x="951.9375" xlink:href="#DejaVuSans-65"/>
     <use x="1013.460938" xlink:href="#DejaVuSans-6e"/>
     <use x="1076.839844" xlink:href="#DejaVuSans-74"/>
     <use x="1116.048828" xlink:href="#DejaVuSans-73"/>
     <use x="1168.148438" xlink:href="#DejaVuSans-20"/>
     <use x="1199.935547" xlink:href="#DejaVuSans-62"/>
     <use x="1263.412109" xlink:href="#DejaVuSans-79"/>
     <use x="1322.591797" xlink:href="#DejaVuSans-20"/>
     <use x="1354.378906" xlink:href="#DejaVuSans-46"/>
     <use x="1404.648438" xlink:href="#DejaVuSans-72"/>
     <use x="1443.511719" xlink:href="#DejaVuSans-65"/>
     <use x="1505.035156" xlink:href="#DejaVuSans-71"/>
     <use x="1568.511719" xlink:href="#DejaVuSans-75"/>
     <use x="1631.890625" xlink:href="#DejaVuSans-65"/>
     <use x="1693.414062" xlink:href="#DejaVuSans-6e"/>
     <use x="1756.792969" xlink:href="#DejaVuSans-63"/>
     <use x="1811.773438" xlink:href="#DejaVuSans-79"/>
     <use x="1870.953125" xlink:href="#DejaVuSans-20"/>
     <use x="1902.740234" xlink:href="#DejaVuSans-6f"/>
     <use x="1963.921875" xlink:href="#DejaVuSans-66"/>
     <use x="1999.126953" xlink:href="#DejaVuSans-20"/>
     <use x="2030.914062" xlink:href="#DejaVuSans-53"/>
     <use x="2094.390625" xlink:href="#DejaVuSans-63"/>
     <use x="2149.371094" xlink:href="#DejaVuSans-68"/>
     <use x="2212.75" xlink:href="#DejaVuSans-6f"/>
     <use x="2273.931641" xlink:href="#DejaVuSans-6f"/>
     <use x="2335.113281" xlink:href="#DejaVuSans-6c"/>
     <use x="2362.896484" xlink:href="#DejaVuSans-20"/>
     <use x="2394.683594" xlink:href="#DejaVuSans-43"/>
     <use x="2464.507812" xlink:href="#DejaVuSans-68"/>
     <use x="2527.886719" xlink:href="#DejaVuSans-61"/>
     <use x="2589.166016" xlink:href="#DejaVuSans-6e"/>
     <use x="2652.544922" xlink:href="#DejaVuSans-67"/>
     <use x="2716.021484" xlink:href="#DejaVuSans-65"/>
    </g>
   </g>
   <g id="legend_1">
    <g id="patch_15">
     <path d="M 639.110937 59.674375 
L 842.253125 59.674375 
Q 844.253125 59.674375 844.253125 57.674375 
L 844.253125 29.318125 
Q 844.253125 27.318125 842.253125 27.318125 
L 639.110937 27.318125 
Q 637.110937 27.318125 637.110937 29.318125 
L 637.110937 57.674375 
Q 637.110937 59.674375 639.110937 59.674375 
z
" style="fill:#ffffff;opacity:0.8;stroke:#cccccc;stroke-linejoin:miter;"/>
    </g>
    <g id="patch_16">
     <path d="M 641.110937 38.916562 
L 661.110937 38.916562 
L 661.110937 31.916562 
L 641.110937 31.916562 
z
" style="fill:#2cbdfe;"/>
    </g>
    <g id="text_22">
     <!-- Frequently changed schools -->
     <g transform="translate(669.110937 38.916562)scale(0.1 -0.1)">
      <use xlink:href="#DejaVuSans-46"/>
      <use x="50.269531" xlink:href="#DejaVuSans-72"/>
      <use x="89.132812" xlink:href="#DejaVuSans-65"/>
      <use x="150.65625" xlink:href="#DejaVuSans-71"/>
      <use x="214.132812" xlink:href="#DejaVuSans-75"/>
      <use x="277.511719" xlink:href="#DejaVuSans-65"/>
      <use x="339.035156" xlink:href="#DejaVuSans-6e"/>
      <use x="402.414062" xlink:href="#DejaVuSans-74"/>
      <use x="441.623047" xlink:href="#DejaVuSans-6c"/>
      <use x="469.40625" xlink:href="#DejaVuSans-79"/>
      <use x="528.585938" xlink:href="#DejaVuSans-20"/>
      <use x="560.373047" xlink:href="#DejaVuSans-63"/>
      <use x="615.353516" xlink:href="#DejaVuSans-68"/>
      <use x="678.732422" xlink:href="#DejaVuSans-61"/>
      <use x="740.011719" xlink:href="#DejaVuSans-6e"/>
      <use x="803.390625" xlink:href="#DejaVuSans-67"/>
      <use x="866.867188" xlink:href="#DejaVuSans-65"/>
      <use x="928.390625" xlink:href="#DejaVuSans-64"/>
      <use x="991.867188" xlink:href="#DejaVuSans-20"/>
      <use x="1023.654297" xlink:href="#DejaVuSans-73"/>
      <use x="1075.753906" xlink:href="#DejaVuSans-63"/>
      <use x="1130.734375" xlink:href="#DejaVuSans-68"/>
      <use x="1194.113281" xlink:href="#DejaVuSans-6f"/>
      <use x="1255.294922" xlink:href="#DejaVuSans-6f"/>
      <use x="1316.476562" xlink:href="#DejaVuSans-6c"/>
      <use x="1344.259766" xlink:href="#DejaVuSans-73"/>
     </g>
    </g>
    <g id="patch_17">
     <path d="M 641.110937 53.594687 
L 661.110937 53.594687 
L 661.110937 46.594687 
L 641.110937 46.594687 
z
" style="fill:#f3a0f2;"/>
    </g>
    <g id="text_23">
     <!-- Didn't frequently changed schools -->
     <g transform="translate(669.110937 53.594687)scale(0.1 -0.1)">
      <defs>
       <path d="M 1259 4147 
L 1259 519 
L 2022 519 
Q 2988 519 3436 956 
Q 3884 1394 3884 2338 
Q 3884 3275 3436 3711 
Q 2988 4147 2022 4147 
L 1259 4147 
z
M 628 4666 
L 1925 4666 
Q 3281 4666 3915 4102 
Q 4550 3538 4550 2338 
Q 4550 1131 3912 565 
Q 3275 0 1925 0 
L 628 0 
L 628 4666 
z
" id="DejaVuSans-44" transform="scale(0.015625)"/>
       <path d="M 1147 4666 
L 1147 2931 
L 616 2931 
L 616 4666 
L 1147 4666 
z
" id="DejaVuSans-27" transform="scale(0.015625)"/>
      </defs>
      <use xlink:href="#DejaVuSans-44"/>
      <use x="77.001953" xlink:href="#DejaVuSans-69"/>
      <use x="104.785156" xlink:href="#DejaVuSans-64"/>
      <use x="168.261719" xlink:href="#DejaVuSans-6e"/>
      <use x="231.640625" xlink:href="#DejaVuSans-27"/>
      <use x="259.130859" xlink:href="#DejaVuSans-74"/>
      <use x="298.339844" xlink:href="#DejaVuSans-20"/>
      <use x="330.126953" xlink:href="#DejaVuSans-66"/>
      <use x="365.332031" xlink:href="#DejaVuSans-72"/>
      <use x="404.195312" xlink:href="#DejaVuSans-65"/>
      <use x="465.71875" xlink:href="#DejaVuSans-71"/>
      <use x="529.195312" xlink:href="#DejaVuSans-75"/>
      <use x="592.574219" xlink:href="#DejaVuSans-65"/>
      <use x="654.097656" xlink:href="#DejaVuSans-6e"/>
      <use x="717.476562" xlink:href="#DejaVuSans-74"/>
      <use x="756.685547" xlink:href="#DejaVuSans-6c"/>
      <use x="784.46875" xlink:href="#DejaVuSans-79"/>
      <use x="843.648438" xlink:href="#DejaVuSans-20"/>
      <use x="875.435547" xlink:href="#DejaVuSans-63"/>
      <use x="930.416016" xlink:href="#DejaVuSans-68"/>
      <use x="993.794922" xlink:href="#DejaVuSans-61"/>
      <use x="1055.074219" xlink:href="#DejaVuSans-6e"/>
      <use x="1118.453125" xlink:href="#DejaVuSans-67"/>
      <use x="1181.929688" xlink:href="#DejaVuSans-65"/>
      <use x="1243.453125" xlink:href="#DejaVuSans-64"/>
      <use x="1306.929688" xlink:href="#DejaVuSans-20"/>
      <use x="1338.716797" xlink:href="#DejaVuSans-73"/>
      <use x="1390.816406" xlink:href="#DejaVuSans-63"/>
      <use x="1445.796875" xlink:href="#DejaVuSans-68"/>
      <use x="1509.175781" xlink:href="#DejaVuSans-6f"/>
      <use x="1570.357422" xlink:href="#DejaVuSans-6f"/>
      <use x="1631.539062" xlink:href="#DejaVuSans-6c"/>
      <use x="1659.322266" xlink:href="#DejaVuSans-73"/>
     </g>
    </g>
   </g>
  </g>
 </g>
 <defs>
  <clipPath id="pab2df774f7">
   <rect height="377.4" width="808.65" x="40.603125" y="22.318125"/>
  </clipPath>
 </defs>
</svg>
